<svg version="1.1" id="Layer_1" xmlns="http://www.w3.org/2000/svg" xmlns:xlink="http://www.w3.org/1999/xlink" x="0px" y="0px"
	viewBox="0 0 512 512" style="enable-background:new 0 0 512 512;" xml:space="preserve">
<g>
	<g>
		<g>
			<path d="M224.246,204.098c9.394,0,17.011-7.616,17.011-17.011V165.54c0-9.394-7.616-17.011-17.011-17.011
				s-17.011,7.616-17.011,17.011v21.547C207.235,196.482,214.852,204.098,224.246,204.098z"/>
			<path d="M287.753,204.098c9.395,0,17.011-7.616,17.011-17.011V165.54c0-9.394-7.616-17.011-17.011-17.011
				s-17.011,7.616-17.011,17.011v21.547C270.742,196.482,278.358,204.098,287.753,204.098z"/>
			<path d="M224.246,301.626c9.394,0,17.011-7.616,17.011-17.011v-21.547c0-9.394-7.616-17.011-17.011-17.011
				s-17.011,7.616-17.011,17.011v21.547C207.235,294.01,214.852,301.626,224.246,301.626z"/>
			<path d="M287.753,301.626c9.395,0,17.011-7.616,17.011-17.011v-21.547c0-9.394-7.616-17.011-17.011-17.011
				s-17.011,7.616-17.011,17.011v21.547C270.742,294.01,278.358,301.626,287.753,301.626z"/>
			<path d="M494.989,411.241h-39.122v-30.112c20.574-7.081,35.403-26.617,35.403-49.565c0-28.901-23.512-52.414-52.414-52.414
				s-52.414,23.512-52.414,52.414c0,22.947,14.829,42.484,35.403,49.565v30.112h-59.533V83.748c0-9.394-7.616-17.011-17.011-17.011
				H166.697c-9.394,0-17.011,7.616-17.011,17.011v327.493H91.856v-30.112c20.574-7.081,35.403-26.617,35.403-49.565
				c0-28.901-23.512-52.414-52.414-52.414c-28.901,0-52.415,23.512-52.415,52.414c0,22.947,14.83,42.484,35.404,49.565v30.112
				H17.011C7.616,411.241,0,418.858,0,428.252s7.616,17.011,17.011,17.011h149.687h178.604h149.688
				c9.394,0,17.011-7.616,17.011-17.011S504.385,411.241,494.989,411.241z M74.845,349.956c-10.142,0-18.393-8.25-18.393-18.392
				c0-10.142,8.25-18.392,18.393-18.392c10.141,0,18.392,8.25,18.392,18.392C93.237,341.706,84.986,349.956,74.845,349.956z
				 M272.553,411.241h-31.404v-31.405h31.404V411.241z M328.292,411.241h-0.001h-21.716v-48.416c0-9.394-7.616-17.011-17.011-17.011
				h-65.426c-9.394,0-17.011,7.616-17.011,17.011v48.416h-23.418V100.759h144.582V411.241z M438.856,349.956
				c-10.141,0-18.392-8.25-18.392-18.392c0-10.142,8.25-18.392,18.392-18.392c10.142,0,18.392,8.25,18.392,18.392
				C457.248,341.706,448.998,349.956,438.856,349.956z"/>
		</g>
	</g>
</g>
<g>
</g>
<g>
</g>
<g>
</g>
<g>
</g>
<g>
</g>
<g>
</g>
<g>
</g>
<g>
</g>
<g>
</g>
<g>
</g>
<g>
</g>
<g>
</g>
<g>
</g>
<g>
</g>
<g>
</g>
</svg>
